<?xml version="1.0" standalone="no"?>
<!DOCTYPE svg PUBLIC "-//W3C//DTD SVG 20010904//EN"
 "http://www.w3.org/TR/2001/REC-SVG-20010904/DTD/svg10.dtd">
<svg version="1.0" xmlns="http://www.w3.org/2000/svg"
 width="260.000000pt" height="260.000000pt" viewBox="0 0 260.000000 260.000000"
 preserveAspectRatio="xMidYMid meet">
<metadata>
Created by potrace 1.11, written by Peter Selinger 2001-2013
</metadata>
<g transform="translate(0.000000,260.000000) scale(0.100000,-0.100000)"
fill="#000000" stroke="none">
<path d="M1230 2480 c0 -3 -27 -5 -60 -5 -33 0 -60 -3 -60 -6 0 -3 -15 -7 -32
-8 -18 -2 -41 -3 -50 -4 -10 -1 -18 -5 -18 -10 0 -5 -7 -7 -15 -3 -8 3 -15 0
-15 -6 0 -6 -3 -9 -6 -5 -4 3 -22 0 -40 -8 -19 -8 -34 -11 -34 -8 0 3 -10 -2
-22 -13 -13 -12 -18 -13 -13 -4 8 13 7 13 -8 1 -9 -7 -17 -10 -17 -7 0 4 -7 0
-16 -8 -8 -9 -24 -16 -33 -16 -10 0 -29 -8 -42 -18 -13 -10 -36 -24 -51 -31
-16 -8 -28 -18 -28 -23 0 -5 -4 -6 -10 -3 -5 3 -10 1 -10 -4 0 -6 -6 -11 -13
-11 -7 0 -30 -16 -50 -35 -20 -19 -37 -32 -37 -28 0 4 -7 -3 -16 -15 -8 -12
-22 -22 -30 -22 -8 0 -14 -3 -14 -7 0 -5 -20 -29 -43 -54 -94 -103 -95 -105
-83 -151 4 -15 4 -33 0 -40 -5 -7 -7 -23 -5 -35 1 -13 -2 -23 -8 -23 -6 0 -11
-6 -11 -13 0 -22 -62 -90 -70 -76 -11 17 -59 -18 -67 -50 -3 -14 -11 -35 -17
-46 -10 -20 -12 -27 -18 -72 -1 -13 -5 -23 -8 -23 -4 0 -7 -6 -7 -12 -2 -26
-12 -103 -14 -103 -1 0 -3 -28 -4 -62 -2 -35 -5 -70 -9 -78 -3 -8 0 -15 7 -15
7 0 8 -3 2 -8 -11 -8 -16 -42 -6 -42 3 0 6 -21 7 -48 1 -67 15 -151 25 -158 5
-3 7 -9 4 -14 -3 -5 3 -34 14 -64 11 -31 18 -56 16 -56 -2 0 2 -12 10 -27 8
-15 12 -30 9 -35 -3 -4 0 -8 5 -8 6 0 11 -9 11 -20 0 -11 5 -20 10 -20 6 0 10
-6 10 -14 0 -7 11 -30 25 -50 14 -21 23 -41 20 -45 -2 -5 6 -17 20 -27 13 -10
22 -21 19 -26 -3 -4 0 -8 5 -8 6 0 11 -6 11 -14 0 -8 7 -17 16 -20 8 -3 13
-10 10 -14 -3 -5 6 -15 19 -22 13 -7 22 -17 19 -22 -3 -4 0 -8 5 -8 6 0 11 -6
11 -14 0 -8 9 -18 20 -21 11 -4 18 -10 15 -14 -2 -5 7 -13 20 -19 14 -7 25
-17 25 -23 0 -8 4 -8 13 -2 17 13 65 15 72 3 3 -6 15 -10 26 -10 10 0 19 -4
19 -10 0 -5 5 -10 10 -10 16 0 63 -50 65 -69 5 -39 26 -69 62 -87 21 -10 42
-17 47 -16 4 2 15 -3 23 -10 15 -13 24 -15 58 -20 11 -2 22 -6 25 -10 3 -4 16
-9 28 -11 12 -2 25 -6 28 -10 4 -4 19 -7 34 -7 15 0 30 -3 34 -7 4 -5 22 -9
39 -10 18 0 33 -2 35 -3 1 -2 20 -4 42 -5 22 -1 41 -3 43 -5 8 -6 107 -3 107
4 0 5 6 3 13 -3 8 -6 17 -7 21 -3 11 10 30 9 38 -3 5 -7 8 -6 8 1 0 6 15 10
35 9 19 -1 35 1 35 5 0 3 10 6 23 7 12 1 32 4 45 7 12 3 32 9 45 12 12 3 30 7
40 7 9 1 17 5 17 9 0 4 9 8 20 8 11 0 20 4 20 9 0 5 6 8 13 8 21 -1 77 15 77
23 0 4 18 13 40 20 22 7 40 16 40 20 0 7 40 28 50 27 5 -1 39 26 66 51 8 7 14
10 14 5 0 -4 5 0 11 9 5 10 17 18 24 18 8 0 15 5 15 11 0 6 7 17 15 25 8 9 15
11 15 5 0 -15 110 101 110 115 0 7 6 14 14 17 23 9 4 67 -21 67 -8 0 -11 4 -8
10 3 6 2 10 -3 10 -10 0 -7 27 5 60 4 8 5 19 4 23 -1 8 14 29 41 54 9 9 15 20
13 24 -9 13 51 3 74 -13 21 -15 24 -15 41 0 11 8 17 19 14 24 -3 4 -1 8 3 8 5
0 17 24 27 53 10 28 20 59 23 67 4 8 5 18 5 23 -1 4 1 7 5 7 5 0 9 14 9 31 1
17 7 35 14 39 10 6 9 9 -1 13 -9 4 -10 6 -2 6 7 1 10 7 7 15 -3 8 -1 17 5 20
6 4 7 15 1 30 -5 15 -5 27 1 33 6 6 9 51 7 107 -2 53 0 97 4 99 4 1 1 14 -6
29 -8 15 -11 30 -7 32 11 7 5 55 -12 103 -8 24 -10 40 -5 37 5 -4 2 8 -6 25
-9 17 -13 31 -10 31 4 0 -1 9 -11 20 -14 15 -15 20 -4 20 11 0 11 2 -1 10 -8
5 -11 10 -6 10 5 0 3 6 -3 13 -6 8 -8 17 -4 20 3 4 1 7 -6 7 -8 0 -11 7 -7 15
3 8 2 15 -2 15 -9 0 -32 49 -32 67 0 7 -5 13 -11 13 -5 0 -8 4 -5 9 3 5 -1 14
-9 21 -8 7 -15 19 -15 26 0 8 -4 14 -10 14 -5 0 -10 6 -10 14 0 7 -13 27 -29
44 -16 16 -27 33 -24 36 3 3 -2 8 -11 12 -9 3 -16 10 -16 15 0 11 -29 45 -79
92 -19 17 -48 45 -63 60 -15 15 -28 25 -28 22 0 -4 -7 1 -16 9 -22 23 -101 76
-111 76 -5 0 -18 8 -29 18 -25 21 -84 55 -84 47 0 -3 -10 0 -22 7 -13 7 -25
13 -28 14 -3 0 -13 4 -22 8 -9 4 -22 9 -30 10 -7 2 -21 6 -30 10 -9 4 -25 9
-35 11 -10 2 -18 4 -18 5 0 1 -11 4 -25 6 -13 2 -27 9 -31 15 -5 8 -8 8 -13 0
-5 -8 -13 -8 -26 -1 -10 5 -35 10 -55 10 -26 0 -34 3 -29 13 5 7 0 6 -11 -3
-21 -17 -24 -17 -36 2 -7 10 -9 10 -9 -2 0 -13 -1 -13 -10 0 -6 10 -10 11 -10
3 0 -9 -7 -10 -24 -3 -15 5 -27 5 -35 -3 -6 -6 -11 -7 -11 -1 0 5 -9 10 -20
10 -11 0 -20 -3 -20 -6z m210 -132 c0 9 64 7 80 -3 6 -3 10 -1 10 6 0 8 4 8
15 -1 9 -7 18 -10 22 -6 4 3 18 -4 31 -16 14 -13 22 -18 19 -11 -5 8 -1 8 18
0 30 -15 42 -39 17 -36 -9 1 -19 0 -22 -1 -17 -7 -60 -5 -60 3 0 5 -6 4 -14
-2 -10 -8 -16 -9 -21 -1 -3 6 -11 8 -16 5 -5 -4 -9 0 -9 7 0 9 -3 9 -10 -2 -7
-11 -10 -11 -10 -2 0 7 -4 10 -10 7 -5 -3 -10 -2 -10 4 0 5 -15 14 -33 20 -19
7 -34 18 -34 26 0 10 5 11 19 4 10 -5 18 -6 18 -1z m-345 -496 c3 -7 9 -11 14
-8 5 4 19 -6 30 -20 12 -15 21 -23 22 -18 1 15 21 -39 25 -66 6 -40 -14 -84
-53 -121 -20 -19 -33 -29 -29 -22 5 8 -2 8 -20 -2 -15 -8 -31 -12 -36 -9 -4 3
-8 -1 -8 -8 0 -10 -2 -10 -9 0 -4 8 -17 13 -27 11 -11 -1 -28 2 -39 6 -28 11
-75 56 -69 67 3 4 1 8 -4 8 -6 0 -13 7 -16 16 -4 10 -2 13 6 8 8 -5 8 -3 2 7
-11 17 -12 79 -1 72 4 -2 7 1 7 6 0 19 44 62 75 75 40 17 123 15 130 -2z m966
-150 c16 -15 38 -40 47 -57 17 -28 18 -40 12 -159 -1 -10 -3 -16 -6 -13 -3 3
-16 -6 -30 -20 -13 -13 -29 -21 -34 -18 -6 3 -10 3 -10 -2 0 -11 -60 -8 -68 3
-4 5 -22 22 -40 37 -19 15 -31 27 -28 27 4 0 0 12 -7 28 -29 57 -1 178 44 189
10 3 17 8 14 12 -2 4 14 6 37 4 27 -2 49 -12 69 -31z m-1478 -625 c4 3 7 -1 7
-11 0 -9 5 -14 10 -11 6 3 10 1 10 -5 0 -7 9 -24 19 -39 19 -27 37 -93 33
-121 -8 -52 -13 -60 -37 -60 -13 0 -27 5 -30 10 -4 6 -11 8 -16 5 -5 -4 -9 1
-9 9 0 9 -4 16 -10 16 -5 0 -10 7 -10 16 0 8 -4 12 -10 9 -5 -3 -10 3 -10 14
0 12 -4 21 -8 21 -5 0 -9 6 -10 13 -1 17 -12 69 -17 85 -2 6 1 12 8 13 8 0 8
2 -1 6 -10 4 -8 11 8 29 20 21 24 22 45 8 12 -8 25 -11 28 -7z m925 -147 c7 0
30 -11 50 -25 20 -14 33 -25 28 -25 -4 0 -1 -11 7 -24 9 -13 14 -36 12 -52 -3
-28 -35 -99 -35 -80 0 6 -6 3 -12 -6 -14 -18 -86 -41 -100 -32 -4 3 -8 0 -8
-6 0 -6 -10 -4 -25 6 -14 9 -25 13 -25 9 0 -3 -13 3 -29 15 -34 23 -67 80 -48
80 9 0 9 2 0 8 -12 8 -12 36 0 48 4 4 7 16 7 26 0 11 4 17 9 13 5 -3 12 4 16
15 4 11 10 18 15 15 4 -2 22 2 39 11 17 8 35 13 40 10 5 -4 13 -1 16 5 5 8 10
8 18 0 6 -6 17 -11 25 -11z"/>
</g>
</svg>
